<svg xmlns="http://www.w3.org/2000/svg" viewBox="0 0 64 64">
  <defs><radialGradient id="bg" cx="50%" cy="42%" r="70%">
    <stop offset="0%" stop-color="#16213f"/><stop offset="100%" stop-color="#0b1226"/></radialGradient></defs>
  <rect width="64" height="64" rx="14" fill="url(#bg)"/>
  <line x1="36.4" y1="30.0" x2="54.0" y2="30.0" stroke="#ffb347" stroke-width="3" stroke-linecap="round" opacity="0.92"/><circle cx="54.0" cy="30.0" r="2.7" fill="#ffb347"/><line x1="36.1" y1="31.7" x2="52.3" y2="38.4" stroke="#ffe08a" stroke-width="3" stroke-linecap="round" opacity="0.92"/><circle cx="52.3" cy="38.4" r="2.7" fill="#ffe08a"/><line x1="35.1" y1="33.1" x2="47.6" y2="45.6" stroke="#ff7ab8" stroke-width="3" stroke-linecap="round" opacity="0.92"/><circle cx="47.6" cy="45.6" r="2.7" fill="#ff7ab8"/><line x1="33.7" y1="34.1" x2="40.4" y2="50.3" stroke="#7df9ff" stroke-width="3" stroke-linecap="round" opacity="0.92"/><circle cx="40.4" cy="50.3" r="2.7" fill="#7df9ff"/><line x1="32.0" y1="34.4" x2="32.0" y2="52.0" stroke="#ffb347" stroke-width="3" stroke-linecap="round" opacity="0.92"/><circle cx="32.0" cy="52.0" r="2.7" fill="#ffb347"/><line x1="30.3" y1="34.1" x2="23.6" y2="50.3" stroke="#ffe08a" stroke-width="3" stroke-linecap="round" opacity="0.92"/><circle cx="23.6" cy="50.3" r="2.7" fill="#ffe08a"/><line x1="28.9" y1="33.1" x2="16.4" y2="45.6" stroke="#c77dff" stroke-width="3" stroke-linecap="round" opacity="0.92"/><circle cx="16.4" cy="45.6" r="2.7" fill="#c77dff"/><line x1="27.9" y1="31.7" x2="11.7" y2="38.4" stroke="#8aff80" stroke-width="3" stroke-linecap="round" opacity="0.92"/><circle cx="11.7" cy="38.4" r="2.7" fill="#8aff80"/><line x1="27.6" y1="30.0" x2="10.0" y2="30.0" stroke="#ffb347" stroke-width="3" stroke-linecap="round" opacity="0.92"/><circle cx="10.0" cy="30.0" r="2.7" fill="#ffb347"/><line x1="27.9" y1="28.3" x2="11.7" y2="21.6" stroke="#ffe08a" stroke-width="3" stroke-linecap="round" opacity="0.92"/><circle cx="11.7" cy="21.6" r="2.7" fill="#ffe08a"/><line x1="28.9" y1="26.9" x2="16.4" y2="14.4" stroke="#ff7ab8" stroke-width="3" stroke-linecap="round" opacity="0.92"/><circle cx="16.4" cy="14.4" r="2.7" fill="#ff7ab8"/><line x1="30.3" y1="25.9" x2="23.6" y2="9.7" stroke="#7df9ff" stroke-width="3" stroke-linecap="round" opacity="0.92"/><circle cx="23.6" cy="9.7" r="2.7" fill="#7df9ff"/><line x1="32.0" y1="25.6" x2="32.0" y2="8.0" stroke="#ffb347" stroke-width="3" stroke-linecap="round" opacity="0.92"/><circle cx="32.0" cy="8.0" r="2.7" fill="#ffb347"/><line x1="33.7" y1="25.9" x2="40.4" y2="9.7" stroke="#ffe08a" stroke-width="3" stroke-linecap="round" opacity="0.92"/><circle cx="40.4" cy="9.7" r="2.7" fill="#ffe08a"/><line x1="35.1" y1="26.9" x2="47.6" y2="14.4" stroke="#c77dff" stroke-width="3" stroke-linecap="round" opacity="0.92"/><circle cx="47.6" cy="14.4" r="2.7" fill="#c77dff"/><line x1="36.1" y1="28.3" x2="52.3" y2="21.6" stroke="#8aff80" stroke-width="3" stroke-linecap="round" opacity="0.92"/><circle cx="52.3" cy="21.6" r="2.7" fill="#8aff80"/><circle cx="32" cy="30" r="3.1" fill="#fff" opacity="0.95"/>
</svg>