<svg xmlns="http://www.w3.org/2000/svg" viewBox="0 0 64 64">
  <defs>
  <linearGradient id="sky" x1="0" y1="0" x2="0.3" y2="1">
    <stop offset="0%" stop-color="#070b1c"/><stop offset="55%" stop-color="#0e1730"/><stop offset="100%" stop-color="#16213f"/>
  </linearGradient>
  <filter id="soft" x="-60%" y="-60%" width="220%" height="220%"><feGaussianBlur stdDeviation="3.2"/></filter>
  <filter id="bokeh" x="-80%" y="-80%" width="260%" height="260%"><feGaussianBlur stdDeviation="7"/></filter>
</defs>
  <rect width="64" height="64" rx="14.08" fill="#0b1226"/>
  <circle cx="32" cy="29.44" r="29.4" fill="#fff2c8" opacity="0.10" filter="url(#soft)"/><circle cx="43.8" cy="29.7" r="0.90" fill="#ffd27a" opacity="0.15"/><circle cx="47.1" cy="30.2" r="1.30" fill="#ffd27a" opacity="0.24"/><circle cx="50.4" cy="30.9" r="1.70" fill="#ffd27a" opacity="0.39"/><circle cx="53.7" cy="31.9" r="2.10" fill="#ffd27a" opacity="0.60"/><circle cx="56.9" cy="33.2" r="2.50" fill="#ffd27a" opacity="0.87"/><circle cx="56.9" cy="33.2" r="2.4" fill="#ffd27a" filter="url(#soft)" opacity="0.9"/><circle cx="56.9" cy="33.2" r="1.3" fill="#ffffff" opacity="0.95"/><circle cx="43.8" cy="31.5" r="0.90" fill="#ff7ab8" opacity="0.15"/><circle cx="47.1" cy="32.5" r="1.30" fill="#ff7ab8" opacity="0.24"/><circle cx="50.4" cy="33.7" r="1.70" fill="#ff7ab8" opacity="0.39"/><circle cx="53.7" cy="35.3" r="2.10" fill="#ff7ab8" opacity="0.60"/><circle cx="57.0" cy="37.1" r="2.50" fill="#ff7ab8" opacity="0.87"/><circle cx="57.0" cy="37.1" r="2.4" fill="#ff7ab8" filter="url(#soft)" opacity="0.9"/><circle cx="57.0" cy="37.1" r="1.3" fill="#ffffff" opacity="0.95"/><circle cx="42.1" cy="32.9" r="0.90" fill="#ffd27a" opacity="0.15"/><circle cx="44.9" cy="34.2" r="1.30" fill="#ffd27a" opacity="0.24"/><circle cx="47.8" cy="35.8" r="1.70" fill="#ffd27a" opacity="0.39"/><circle cx="50.6" cy="37.6" r="2.10" fill="#ffd27a" opacity="0.60"/><circle cx="53.4" cy="39.6" r="2.50" fill="#ffd27a" opacity="0.87"/><circle cx="53.4" cy="39.6" r="2.4" fill="#ffd27a" filter="url(#soft)" opacity="0.9"/><circle cx="53.4" cy="39.6" r="1.3" fill="#ffffff" opacity="0.95"/><circle cx="40.9" cy="34.3" r="0.90" fill="#ff9e3d" opacity="0.15"/><circle cx="43.4" cy="35.9" r="1.30" fill="#ff9e3d" opacity="0.24"/><circle cx="45.9" cy="37.8" r="1.70" fill="#ff9e3d" opacity="0.39"/><circle cx="48.4" cy="40.0" r="2.10" fill="#ff9e3d" opacity="0.60"/><circle cx="50.9" cy="42.4" r="2.50" fill="#ff9e3d" opacity="0.87"/><circle cx="50.9" cy="42.4" r="2.4" fill="#ff9e3d" filter="url(#soft)" opacity="0.9"/><circle cx="50.9" cy="42.4" r="1.3" fill="#ffffff" opacity="0.95"/><circle cx="40.2" cy="35.5" r="0.90" fill="#fff2c8" opacity="0.15"/><circle cx="42.5" cy="37.5" r="1.30" fill="#fff2c8" opacity="0.24"/><circle cx="44.8" cy="39.7" r="1.70" fill="#fff2c8" opacity="0.39"/><circle cx="47.1" cy="42.2" r="2.10" fill="#fff2c8" opacity="0.60"/><circle cx="49.4" cy="45.0" r="2.50" fill="#fff2c8" opacity="0.87"/><circle cx="49.4" cy="45.0" r="2.4" fill="#fff2c8" filter="url(#soft)" opacity="0.9"/><circle cx="49.4" cy="45.0" r="1.3" fill="#ffffff" opacity="0.95"/><circle cx="39.6" cy="37.3" r="0.90" fill="#ffd27a" opacity="0.15"/><circle cx="41.7" cy="39.9" r="1.30" fill="#ffd27a" opacity="0.24"/><circle cx="43.8" cy="42.7" r="1.70" fill="#ffd27a" opacity="0.39"/><circle cx="45.9" cy="45.7" r="2.10" fill="#ffd27a" opacity="0.60"/><circle cx="48.1" cy="49.0" r="2.50" fill="#ffd27a" opacity="0.87"/><circle cx="48.1" cy="49.0" r="2.4" fill="#ffd27a" filter="url(#soft)" opacity="0.9"/><circle cx="48.1" cy="49.0" r="1.3" fill="#ffffff" opacity="0.95"/><circle cx="37.9" cy="37.5" r="0.90" fill="#7df9ff" opacity="0.15"/><circle cx="39.6" cy="40.1" r="1.30" fill="#7df9ff" opacity="0.24"/><circle cx="41.3" cy="42.9" r="1.70" fill="#7df9ff" opacity="0.39"/><circle cx="42.9" cy="45.9" r="2.10" fill="#7df9ff" opacity="0.60"/><circle cx="44.6" cy="49.2" r="2.50" fill="#7df9ff" opacity="0.87"/><circle cx="44.6" cy="49.2" r="2.4" fill="#7df9ff" filter="url(#soft)" opacity="0.9"/><circle cx="44.6" cy="49.2" r="1.3" fill="#ffffff" opacity="0.95"/><circle cx="36.7" cy="38.9" r="0.90" fill="#ff7ab8" opacity="0.15"/><circle cx="38.0" cy="41.8" r="1.30" fill="#ff7ab8" opacity="0.24"/><circle cx="39.4" cy="45.1" r="1.70" fill="#ff7ab8" opacity="0.39"/><circle cx="40.7" cy="48.5" r="2.10" fill="#ff7ab8" opacity="0.60"/><circle cx="42.0" cy="52.2" r="2.50" fill="#ff7ab8" opacity="0.87"/><circle cx="42.0" cy="52.2" r="2.4" fill="#ff7ab8" filter="url(#soft)" opacity="0.9"/><circle cx="42.0" cy="52.2" r="1.3" fill="#ffffff" opacity="0.95"/><circle cx="35.4" cy="40.9" r="0.90" fill="#ffb347" opacity="0.15"/><circle cx="36.4" cy="44.4" r="1.30" fill="#ffb347" opacity="0.24"/><circle cx="37.4" cy="48.3" r="1.70" fill="#ffb347" opacity="0.39"/><circle cx="38.3" cy="52.4" r="2.10" fill="#ffb347" opacity="0.60"/><circle cx="39.3" cy="56.8" r="2.50" fill="#ffb347" opacity="0.87"/><circle cx="39.3" cy="56.8" r="2.4" fill="#ffb347" filter="url(#soft)" opacity="0.9"/><circle cx="39.3" cy="56.8" r="1.3" fill="#ffffff" opacity="0.95"/><circle cx="33.8" cy="40.3" r="0.90" fill="#ff9e3d" opacity="0.15"/><circle cx="34.3" cy="43.6" r="1.30" fill="#ff9e3d" opacity="0.24"/><circle cx="34.9" cy="47.3" r="1.70" fill="#ff9e3d" opacity="0.39"/><circle cx="35.4" cy="51.2" r="2.10" fill="#ff9e3d" opacity="0.60"/><circle cx="35.9" cy="55.3" r="2.50" fill="#ff9e3d" opacity="0.87"/><circle cx="35.9" cy="55.3" r="2.4" fill="#ff9e3d" filter="url(#soft)" opacity="0.9"/><circle cx="35.9" cy="55.3" r="1.3" fill="#ffffff" opacity="0.95"/><circle cx="31.9" cy="40.5" r="0.90" fill="#7df9ff" opacity="0.15"/><circle cx="31.8" cy="43.9" r="1.30" fill="#7df9ff" opacity="0.24"/><circle cx="31.8" cy="47.6" r="1.70" fill="#7df9ff" opacity="0.39"/><circle cx="31.7" cy="51.6" r="2.10" fill="#7df9ff" opacity="0.60"/><circle cx="31.7" cy="55.8" r="2.50" fill="#7df9ff" opacity="0.87"/><circle cx="31.7" cy="55.8" r="2.4" fill="#7df9ff" filter="url(#soft)" opacity="0.9"/><circle cx="31.7" cy="55.8" r="1.3" fill="#ffffff" opacity="0.95"/><circle cx="30.7" cy="38.5" r="0.90" fill="#ff9e3d" opacity="0.15"/><circle cx="30.3" cy="41.3" r="1.30" fill="#ff9e3d" opacity="0.24"/><circle cx="29.9" cy="44.3" r="1.70" fill="#ff9e3d" opacity="0.39"/><circle cx="29.5" cy="47.5" r="2.10" fill="#ff9e3d" opacity="0.60"/><circle cx="29.2" cy="51.0" r="2.50" fill="#ff9e3d" opacity="0.87"/><circle cx="29.2" cy="51.0" r="2.4" fill="#ff9e3d" filter="url(#soft)" opacity="0.9"/><circle cx="29.2" cy="51.0" r="1.3" fill="#ffffff" opacity="0.95"/><circle cx="29.0" cy="39.3" r="0.90" fill="#ff9e3d" opacity="0.15"/><circle cx="28.2" cy="42.4" r="1.30" fill="#ff9e3d" opacity="0.24"/><circle cx="27.4" cy="45.7" r="1.70" fill="#ff9e3d" opacity="0.39"/><circle cx="26.5" cy="49.2" r="2.10" fill="#ff9e3d" opacity="0.60"/><circle cx="25.7" cy="53.0" r="2.50" fill="#ff9e3d" opacity="0.87"/><circle cx="25.7" cy="53.0" r="2.4" fill="#ff9e3d" filter="url(#soft)" opacity="0.9"/><circle cx="25.7" cy="53.0" r="1.3" fill="#ffffff" opacity="0.95"/><circle cx="26.7" cy="39.6" r="0.90" fill="#ff7ab8" opacity="0.15"/><circle cx="25.2" cy="42.8" r="1.30" fill="#ff7ab8" opacity="0.24"/><circle cx="23.7" cy="46.3" r="1.70" fill="#ff7ab8" opacity="0.39"/><circle cx="22.2" cy="50.0" r="2.10" fill="#ff7ab8" opacity="0.60"/><circle cx="20.7" cy="54.1" r="2.50" fill="#ff7ab8" opacity="0.87"/><circle cx="20.7" cy="54.1" r="2.4" fill="#ff7ab8" filter="url(#soft)" opacity="0.9"/><circle cx="20.7" cy="54.1" r="1.3" fill="#ffffff" opacity="0.95"/><circle cx="25.1" cy="39.2" r="0.90" fill="#ff9e3d" opacity="0.15"/><circle cx="23.2" cy="42.3" r="1.30" fill="#ff9e3d" opacity="0.24"/><circle cx="21.3" cy="45.6" r="1.70" fill="#ff9e3d" opacity="0.39"/><circle cx="19.4" cy="49.3" r="2.10" fill="#ff9e3d" opacity="0.60"/><circle cx="17.5" cy="53.2" r="2.50" fill="#ff9e3d" opacity="0.87"/><circle cx="17.5" cy="53.2" r="2.4" fill="#ff9e3d" filter="url(#soft)" opacity="0.9"/><circle cx="17.5" cy="53.2" r="1.3" fill="#ffffff" opacity="0.95"/><circle cx="24.1" cy="37.5" r="0.90" fill="#c77dff" opacity="0.15"/><circle cx="21.9" cy="40.1" r="1.30" fill="#c77dff" opacity="0.24"/><circle cx="19.6" cy="42.9" r="1.70" fill="#c77dff" opacity="0.39"/><circle cx="17.4" cy="46.1" r="2.10" fill="#c77dff" opacity="0.60"/><circle cx="15.2" cy="49.5" r="2.50" fill="#c77dff" opacity="0.87"/><circle cx="15.2" cy="49.5" r="2.4" fill="#c77dff" filter="url(#soft)" opacity="0.9"/><circle cx="15.2" cy="49.5" r="1.3" fill="#ffffff" opacity="0.95"/><circle cx="24.0" cy="35.3" r="0.90" fill="#ffd27a" opacity="0.15"/><circle cx="21.7" cy="37.3" r="1.30" fill="#ffd27a" opacity="0.24"/><circle cx="19.5" cy="39.5" r="1.70" fill="#ffd27a" opacity="0.39"/><circle cx="17.3" cy="41.9" r="2.10" fill="#ffd27a" opacity="0.60"/><circle cx="15.0" cy="44.6" r="2.50" fill="#ffd27a" opacity="0.87"/><circle cx="15.0" cy="44.6" r="2.4" fill="#ffd27a" filter="url(#soft)" opacity="0.9"/><circle cx="15.0" cy="44.6" r="1.3" fill="#ffffff" opacity="0.95"/><circle cx="22.8" cy="34.4" r="0.90" fill="#fff2c8" opacity="0.15"/><circle cx="20.3" cy="36.2" r="1.30" fill="#fff2c8" opacity="0.24"/><circle cx="17.7" cy="38.1" r="1.70" fill="#fff2c8" opacity="0.39"/><circle cx="15.1" cy="40.4" r="2.10" fill="#fff2c8" opacity="0.60"/><circle cx="12.6" cy="42.8" r="2.50" fill="#fff2c8" opacity="0.87"/><circle cx="12.6" cy="42.8" r="2.4" fill="#fff2c8" filter="url(#soft)" opacity="0.9"/><circle cx="12.6" cy="42.8" r="1.3" fill="#ffffff" opacity="0.95"/><circle cx="21.5" cy="33.0" r="0.90" fill="#ff9e3d" opacity="0.15"/><circle cx="18.5" cy="34.4" r="1.30" fill="#ff9e3d" opacity="0.24"/><circle cx="15.6" cy="36.0" r="1.70" fill="#ff9e3d" opacity="0.39"/><circle cx="12.7" cy="37.9" r="2.10" fill="#ff9e3d" opacity="0.60"/><circle cx="9.7" cy="40.1" r="2.50" fill="#ff9e3d" opacity="0.87"/><circle cx="9.7" cy="40.1" r="2.4" fill="#ff9e3d" filter="url(#soft)" opacity="0.9"/><circle cx="9.7" cy="40.1" r="1.3" fill="#ffffff" opacity="0.95"/><circle cx="22.9" cy="30.9" r="0.90" fill="#c77dff" opacity="0.15"/><circle cx="20.4" cy="31.6" r="1.30" fill="#c77dff" opacity="0.24"/><circle cx="17.9" cy="32.5" r="1.70" fill="#c77dff" opacity="0.39"/><circle cx="15.3" cy="33.7" r="2.10" fill="#c77dff" opacity="0.60"/><circle cx="12.8" cy="35.0" r="2.50" fill="#c77dff" opacity="0.87"/><circle cx="12.8" cy="35.0" r="2.4" fill="#c77dff" filter="url(#soft)" opacity="0.9"/><circle cx="12.8" cy="35.0" r="1.3" fill="#ffffff" opacity="0.95"/><circle cx="20.9" cy="29.4" r="0.90" fill="#ff7ab8" opacity="0.15"/><circle cx="17.7" cy="29.7" r="1.30" fill="#ff7ab8" opacity="0.24"/><circle cx="14.6" cy="30.3" r="1.70" fill="#ff7ab8" opacity="0.39"/><circle cx="11.5" cy="31.2" r="2.10" fill="#ff7ab8" opacity="0.60"/><circle cx="8.4" cy="32.3" r="2.50" fill="#ff7ab8" opacity="0.87"/><circle cx="8.4" cy="32.3" r="2.4" fill="#ff7ab8" filter="url(#soft)" opacity="0.9"/><circle cx="8.4" cy="32.3" r="1.3" fill="#ffffff" opacity="0.95"/><circle cx="23.4" cy="28.1" r="0.90" fill="#7df9ff" opacity="0.15"/><circle cx="21.0" cy="28.0" r="1.30" fill="#7df9ff" opacity="0.24"/><circle cx="18.6" cy="28.1" r="1.70" fill="#7df9ff" opacity="0.39"/><circle cx="16.2" cy="28.5" r="2.10" fill="#7df9ff" opacity="0.60"/><circle cx="13.8" cy="29.0" r="2.50" fill="#7df9ff" opacity="0.87"/><circle cx="13.8" cy="29.0" r="2.4" fill="#7df9ff" filter="url(#soft)" opacity="0.9"/><circle cx="13.8" cy="29.0" r="1.3" fill="#ffffff" opacity="0.95"/><circle cx="22.8" cy="26.4" r="0.90" fill="#c77dff" opacity="0.15"/><circle cx="20.3" cy="25.9" r="1.30" fill="#c77dff" opacity="0.24"/><circle cx="17.7" cy="25.6" r="1.70" fill="#c77dff" opacity="0.39"/><circle cx="15.1" cy="25.5" r="2.10" fill="#c77dff" opacity="0.60"/><circle cx="12.6" cy="25.6" r="2.50" fill="#c77dff" opacity="0.87"/><circle cx="12.6" cy="25.6" r="2.4" fill="#c77dff" filter="url(#soft)" opacity="0.9"/><circle cx="12.6" cy="25.6" r="1.3" fill="#ffffff" opacity="0.95"/><circle cx="24.1" cy="25.4" r="0.90" fill="#ff9e3d" opacity="0.15"/><circle cx="22.0" cy="24.6" r="1.30" fill="#ff9e3d" opacity="0.24"/><circle cx="19.8" cy="24.0" r="1.70" fill="#ff9e3d" opacity="0.39"/><circle cx="17.6" cy="23.5" r="2.10" fill="#ff9e3d" opacity="0.60"/><circle cx="15.4" cy="23.3" r="2.50" fill="#ff9e3d" opacity="0.87"/><circle cx="15.4" cy="23.3" r="2.4" fill="#ff9e3d" filter="url(#soft)" opacity="0.9"/><circle cx="15.4" cy="23.3" r="1.3" fill="#ffffff" opacity="0.95"/><circle cx="23.7" cy="23.7" r="0.90" fill="#ff9e3d" opacity="0.15"/><circle cx="21.4" cy="22.4" r="1.30" fill="#ff9e3d" opacity="0.24"/><circle cx="19.1" cy="21.3" r="1.70" fill="#ff9e3d" opacity="0.39"/><circle cx="16.8" cy="20.5" r="2.10" fill="#ff9e3d" opacity="0.60"/><circle cx="14.5" cy="19.9" r="2.50" fill="#ff9e3d" opacity="0.87"/><circle cx="14.5" cy="19.9" r="2.4" fill="#ff9e3d" filter="url(#soft)" opacity="0.9"/><circle cx="14.5" cy="19.9" r="1.3" fill="#ffffff" opacity="0.95"/><circle cx="25.7" cy="23.3" r="0.90" fill="#ffb347" opacity="0.15"/><circle cx="23.9" cy="21.9" r="1.30" fill="#ffb347" opacity="0.24"/><circle cx="22.2" cy="20.7" r="1.70" fill="#ffb347" opacity="0.39"/><circle cx="20.4" cy="19.7" r="2.10" fill="#ffb347" opacity="0.60"/><circle cx="18.7" cy="18.9" r="2.50" fill="#ffb347" opacity="0.87"/><circle cx="18.7" cy="18.9" r="2.4" fill="#ffb347" filter="url(#soft)" opacity="0.9"/><circle cx="18.7" cy="18.9" r="1.3" fill="#ffffff" opacity="0.95"/><circle cx="26.7" cy="22.4" r="0.90" fill="#ffd27a" opacity="0.15"/><circle cx="25.2" cy="20.7" r="1.30" fill="#ffd27a" opacity="0.24"/><circle cx="23.8" cy="19.2" r="1.70" fill="#ffd27a" opacity="0.39"/><circle cx="22.3" cy="18.0" r="2.10" fill="#ffd27a" opacity="0.60"/><circle cx="20.8" cy="16.9" r="2.50" fill="#ffd27a" opacity="0.87"/><circle cx="20.8" cy="16.9" r="2.4" fill="#ffd27a" filter="url(#soft)" opacity="0.9"/><circle cx="20.8" cy="16.9" r="1.3" fill="#ffffff" opacity="0.95"/><circle cx="27.1" cy="20.0" r="0.90" fill="#ff9e3d" opacity="0.15"/><circle cx="25.7" cy="17.7" r="1.30" fill="#ff9e3d" opacity="0.24"/><circle cx="24.3" cy="15.7" r="1.70" fill="#ff9e3d" opacity="0.39"/><circle cx="22.9" cy="13.9" r="2.10" fill="#ff9e3d" opacity="0.60"/><circle cx="21.6" cy="12.4" r="2.50" fill="#ff9e3d" opacity="0.87"/><circle cx="21.6" cy="12.4" r="2.4" fill="#ff9e3d" filter="url(#soft)" opacity="0.9"/><circle cx="21.6" cy="12.4" r="1.3" fill="#ffffff" opacity="0.95"/><circle cx="28.7" cy="19.6" r="0.90" fill="#7df9ff" opacity="0.15"/><circle cx="27.8" cy="17.2" r="1.30" fill="#7df9ff" opacity="0.24"/><circle cx="26.8" cy="15.0" r="1.70" fill="#7df9ff" opacity="0.39"/><circle cx="25.9" cy="13.1" r="2.10" fill="#7df9ff" opacity="0.60"/><circle cx="25.0" cy="11.5" r="2.50" fill="#7df9ff" opacity="0.87"/><circle cx="25.0" cy="11.5" r="2.4" fill="#7df9ff" filter="url(#soft)" opacity="0.9"/><circle cx="25.0" cy="11.5" r="1.3" fill="#ffffff" opacity="0.95"/><circle cx="30.6" cy="20.0" r="0.90" fill="#7df9ff" opacity="0.15"/><circle cx="30.2" cy="17.7" r="1.30" fill="#7df9ff" opacity="0.24"/><circle cx="29.8" cy="15.6" r="1.70" fill="#7df9ff" opacity="0.39"/><circle cx="29.4" cy="13.7" r="2.10" fill="#7df9ff" opacity="0.60"/><circle cx="29.1" cy="12.1" r="2.50" fill="#7df9ff" opacity="0.87"/><circle cx="29.1" cy="12.1" r="2.4" fill="#7df9ff" filter="url(#soft)" opacity="0.9"/><circle cx="29.1" cy="12.1" r="1.3" fill="#ffffff" opacity="0.95"/><circle cx="31.8" cy="19.2" r="0.90" fill="#7df9ff" opacity="0.15"/><circle cx="31.8" cy="16.6" r="1.30" fill="#7df9ff" opacity="0.24"/><circle cx="31.7" cy="14.4" r="1.70" fill="#7df9ff" opacity="0.39"/><circle cx="31.6" cy="12.3" r="2.10" fill="#7df9ff" opacity="0.60"/><circle cx="31.6" cy="10.5" r="2.50" fill="#7df9ff" opacity="0.87"/><circle cx="31.6" cy="10.5" r="2.4" fill="#7df9ff" filter="url(#soft)" opacity="0.9"/><circle cx="31.6" cy="10.5" r="1.3" fill="#ffffff" opacity="0.95"/><circle cx="33.9" cy="18.4" r="0.90" fill="#ff9e3d" opacity="0.15"/><circle cx="34.5" cy="15.7" r="1.30" fill="#ff9e3d" opacity="0.24"/><circle cx="35.0" cy="13.2" r="1.70" fill="#ff9e3d" opacity="0.39"/><circle cx="35.5" cy="11.0" r="2.10" fill="#ff9e3d" opacity="0.60"/><circle cx="36.1" cy="9.1" r="2.50" fill="#ff9e3d" opacity="0.87"/><circle cx="36.1" cy="9.1" r="2.4" fill="#ff9e3d" filter="url(#soft)" opacity="0.9"/><circle cx="36.1" cy="9.1" r="1.3" fill="#ffffff" opacity="0.95"/><circle cx="35.6" cy="18.7" r="0.90" fill="#7df9ff" opacity="0.15"/><circle cx="36.6" cy="16.1" r="1.30" fill="#7df9ff" opacity="0.24"/><circle cx="37.6" cy="13.7" r="1.70" fill="#7df9ff" opacity="0.39"/><circle cx="38.6" cy="11.6" r="2.10" fill="#7df9ff" opacity="0.60"/><circle cx="39.6" cy="9.8" r="2.50" fill="#7df9ff" opacity="0.87"/><circle cx="39.6" cy="9.8" r="2.4" fill="#7df9ff" filter="url(#soft)" opacity="0.9"/><circle cx="39.6" cy="9.8" r="1.3" fill="#ffffff" opacity="0.95"/><circle cx="36.2" cy="21.1" r="0.90" fill="#fff2c8" opacity="0.15"/><circle cx="37.4" cy="19.1" r="1.30" fill="#fff2c8" opacity="0.24"/><circle cx="38.6" cy="17.3" r="1.70" fill="#fff2c8" opacity="0.39"/><circle cx="39.8" cy="15.7" r="2.10" fill="#fff2c8" opacity="0.60"/><circle cx="40.9" cy="14.3" r="2.50" fill="#fff2c8" opacity="0.87"/><circle cx="40.9" cy="14.3" r="2.4" fill="#fff2c8" filter="url(#soft)" opacity="0.9"/><circle cx="40.9" cy="14.3" r="1.3" fill="#ffffff" opacity="0.95"/><circle cx="38.5" cy="20.7" r="0.90" fill="#ff7ab8" opacity="0.15"/><circle cx="40.3" cy="18.6" r="1.30" fill="#ff7ab8" opacity="0.24"/><circle cx="42.2" cy="16.7" r="1.70" fill="#ff7ab8" opacity="0.39"/><circle cx="44.0" cy="15.2" r="2.10" fill="#ff7ab8" opacity="0.60"/><circle cx="45.8" cy="13.9" r="2.50" fill="#ff7ab8" opacity="0.87"/><circle cx="45.8" cy="13.9" r="2.4" fill="#ff7ab8" filter="url(#soft)" opacity="0.9"/><circle cx="45.8" cy="13.9" r="1.3" fill="#ffffff" opacity="0.95"/><circle cx="39.0" cy="22.3" r="0.90" fill="#ff9e3d" opacity="0.15"/><circle cx="41.0" cy="20.6" r="1.30" fill="#ff9e3d" opacity="0.24"/><circle cx="43.0" cy="19.2" r="1.70" fill="#ff9e3d" opacity="0.39"/><circle cx="45.0" cy="18.0" r="2.10" fill="#ff9e3d" opacity="0.60"/><circle cx="46.9" cy="17.0" r="2.50" fill="#ff9e3d" opacity="0.87"/><circle cx="46.9" cy="17.0" r="2.4" fill="#ff9e3d" filter="url(#soft)" opacity="0.9"/><circle cx="46.9" cy="17.0" r="1.3" fill="#ffffff" opacity="0.95"/><circle cx="40.0" cy="23.8" r="0.90" fill="#fff2c8" opacity="0.15"/><circle cx="42.3" cy="22.6" r="1.30" fill="#fff2c8" opacity="0.24"/><circle cx="44.5" cy="21.6" r="1.70" fill="#fff2c8" opacity="0.39"/><circle cx="46.8" cy="20.8" r="2.10" fill="#fff2c8" opacity="0.60"/><circle cx="49.0" cy="20.2" r="2.50" fill="#fff2c8" opacity="0.87"/><circle cx="49.0" cy="20.2" r="2.4" fill="#fff2c8" filter="url(#soft)" opacity="0.9"/><circle cx="49.0" cy="20.2" r="1.3" fill="#ffffff" opacity="0.95"/><circle cx="41.2" cy="24.8" r="0.90" fill="#ff9e3d" opacity="0.15"/><circle cx="43.7" cy="23.9" r="1.30" fill="#ff9e3d" opacity="0.24"/><circle cx="46.3" cy="23.2" r="1.70" fill="#ff9e3d" opacity="0.39"/><circle cx="48.9" cy="22.7" r="2.10" fill="#ff9e3d" opacity="0.60"/><circle cx="51.4" cy="22.5" r="2.50" fill="#ff9e3d" opacity="0.87"/><circle cx="51.4" cy="22.5" r="2.4" fill="#ff9e3d" filter="url(#soft)" opacity="0.9"/><circle cx="51.4" cy="22.5" r="1.3" fill="#ffffff" opacity="0.95"/><circle cx="42.1" cy="26.5" r="0.90" fill="#7df9ff" opacity="0.15"/><circle cx="44.9" cy="26.0" r="1.30" fill="#7df9ff" opacity="0.24"/><circle cx="47.7" cy="25.7" r="1.70" fill="#7df9ff" opacity="0.39"/><circle cx="50.5" cy="25.7" r="2.10" fill="#7df9ff" opacity="0.60"/><circle cx="53.4" cy="26.0" r="2.50" fill="#7df9ff" opacity="0.87"/><circle cx="53.4" cy="26.0" r="2.4" fill="#7df9ff" filter="url(#soft)" opacity="0.9"/><circle cx="53.4" cy="26.0" r="1.3" fill="#ffffff" opacity="0.95"/><circle cx="40.6" cy="28.1" r="0.90" fill="#fff2c8" opacity="0.15"/><circle cx="43.0" cy="28.0" r="1.30" fill="#fff2c8" opacity="0.24"/><circle cx="45.4" cy="28.1" r="1.70" fill="#fff2c8" opacity="0.39"/><circle cx="47.8" cy="28.4" r="2.10" fill="#fff2c8" opacity="0.60"/><circle cx="50.3" cy="28.9" r="2.50" fill="#fff2c8" opacity="0.87"/><circle cx="50.3" cy="28.9" r="2.4" fill="#fff2c8" filter="url(#soft)" opacity="0.9"/><circle cx="50.3" cy="28.9" r="1.3" fill="#ffffff" opacity="0.95"/><circle cx="35.1" cy="8.0" r="0.80" fill="#ff9e3d" opacity="0.54"/><circle cx="40.9" cy="49.7" r="0.46" fill="#ffb347" opacity="0.25"/><circle cx="15.9" cy="36.2" r="0.95" fill="#c77dff" opacity="0.50"/><circle cx="18.4" cy="8.5" r="0.57" fill="#c77dff" opacity="0.39"/><circle cx="31.9" cy="2.5" r="0.97" fill="#ffd27a" opacity="0.19"/><circle cx="15.8" cy="37.5" r="1.27" fill="#ffb347" opacity="0.51"/><circle cx="10.4" cy="19.9" r="1.12" fill="#fff2c8" opacity="0.38"/><circle cx="46.7" cy="44.5" r="1.27" fill="#ffb347" opacity="0.57"/><circle cx="14.9" cy="34.5" r="1.17" fill="#ffb347" opacity="0.18"/><circle cx="16.1" cy="42.6" r="1.15" fill="#c77dff" opacity="0.59"/><circle cx="47.9" cy="32.6" r="0.72" fill="#c77dff" opacity="0.47"/><circle cx="42.9" cy="42.4" r="1.15" fill="#ff9e3d" opacity="0.65"/><circle cx="10.9" cy="26.3" r="1.21" fill="#fff2c8" opacity="0.58"/><circle cx="30.4" cy="14.9" r="1.07" fill="#ffd27a" opacity="0.36"/><circle cx="21.2" cy="21.0" r="1.00" fill="#fff2c8" opacity="0.27"/><circle cx="14.9" cy="35.4" r="1.17" fill="#ffb347" opacity="0.49"/><circle cx="33.9" cy="11.7" r="1.18" fill="#ffb347" opacity="0.25"/><circle cx="11.3" cy="22.5" r="0.59" fill="#ff7ab8" opacity="0.44"/><circle cx="15.7" cy="41.6" r="0.93" fill="#ff9e3d" opacity="0.39"/><circle cx="46.3" cy="49.1" r="0.64" fill="#c77dff" opacity="0.26"/><circle cx="45.2" cy="33.9" r="0.98" fill="#c77dff" opacity="0.31"/><circle cx="27.1" cy="12.6" r="1.00" fill="#ff7ab8" opacity="0.29"/><circle cx="32" cy="29.44" r="4.1" fill="#fff6d8" opacity="0.5" filter="url(#soft)"/><circle cx="32" cy="29.44" r="1.5" fill="#ffffff" opacity="0.95"/>
</svg>